#!OML:ASF I:\golf\golf\golf 2\Subject 1\2002-09-07\Subject1.ASF
:FULLY-SPECIFIED
:DEGREES
427
root -11.2506 18.0916 6.17698 -148.2 80.562 -165.926
lowerback 3.4353 2.07052 -0.667835
upperback 4.02524 2.8664 5.02299
thorax 1.93528 1.42698 5.52555
lowerneck -11.5784 -2.32583 1.93755
upperneck 41.8022 0.0526373 -3.13729
head 17.2138 0.718946 -1.52076
rclavicle -1.35174e-014 -7.95139e-015
rhumerus -8.67888 10.432 -100.163
rradius 32.0679
rwrist -42.789
rhand -27.3752 -15.419
rfingers 7.12502
rthumb -0.782452 -45.3973
lclavicle -1.35174e-014 -7.95139e-015
lhumerus -11.7328 -44.6806 108.755
lradius 35.8176
lwrist 49.8331
lhand -6.27563 59.5809
lfingers 7.12502
lthumb -160.433 268.616
rfemur -25.1089 -2.7637 12.9929
rtibia 20.7857
rfoot -6.19807 -13.8568
rtoes 0.149408
lfemur -29.5845 1.75988 -11.7394
ltibia 21.2461
lfoot -8.16264 -8.28238
ltoes -16.8364
428
root -11.2487 18.091 6.17378 -148.744 80.3074 -166.469
lowerback 3.39427 2.07441 -0.494538
upperback 4.02327 2.87373 4.97525
thorax 1.96545 1.43476 5.37832
lowerneck -11.5939 -2.30593 2.11807
upperneck 41.7669 0.040328 -3.16693
head 17.1952 0.73893 -1.56831
rclavicle 9.54166e-015 -4.13472e-014
rhumerus -8.62486 10.3965 -100.213
rradius 32.0643
rwrist -42.7606
rhand -27.2462 -15.5051
rfingers 7.12502
rthumb -0.657833 -45.4838
lclavicle 9.54166e-015 -4.13472e-014
lhumerus -11.7228 -44.8429 108.69
lradius 35.7991
lwrist 49.7861
lhand -6.17395 59.4146
lfingers 7.12502
lthumb -160.335 268.44
rfemur -25.0298 -2.92825 13.0118
rtibia 20.7765
rfoot -6.15906 -13.9557
rtoes -0.575111
lfemur -29.6344 1.86711 -11.8137
ltibia 21.2102
lfoot -8.1158 -8.6891
ltoes -16.4899
429
root -11.2455 18.0912 6.16955 -148.901 80.0903 -166.551
lowerback 3.41907 2.08296 -0.255267
upperback 4.04841 2.89064 4.9348
thorax 1.98876 1.44952 5.19935
lowerneck -11.7031 -2.26786 2.22066
upperneck 41.796 0.0574123 -3.13588
head 17.2404 0.767312 -1.57108
rclavicle -4.37326e-014 -2.22639e-014
rhumerus -8.6179 10.4705 -100.251
rradius 32.1783
rwrist -42.8085
rhand -27.1569 -15.9263
rfingers 7.12502
rthumb -0.571586 -45.9053
lclavicle -4.37326e-014 -2.22639e-014
lhumerus -11.7035 -44.992 108.588
lradius 35.7947
lwrist 49.8168
lhand -6.06765 59.2408
lfingers 7.12502
lthumb -160.233 268.256
rfemur -24.8852 -3.04559 13.0927
rtibia 20.7685
rfoot -6.0985 -14.0635
rtoes -1.2515
lfemur -29.5878 1.93976 -11.8064
ltibia 21.1887
lfoot -8.07543 -9.04363
ltoes -15.9518
430
root -11.243 18.091 6.16714 -149.023 79.9311 -166.589
lowerback 3.46874 2.09282 -0.0790548
upperback 4.08181 2.90911 4.91364
thorax 2.00301 1.46369 5.07576
lowerneck -11.8783 -2.23796 2.25774
upperneck 41.9007 0.0831747 -3.08969
head 17.3476 0.793078 -1.55516
rclavicle 3.02153e-014 3.18055e-015
rhumerus -8.64021 10.6087 -100.264
rradius 32.2738
rwrist -42.7865
rhand -27.0753 -16.1669
rfingers 7.12502
rthumb -0.49282 -46.1461
lclavicle 3.02153e-014 3.18055e-015
lhumerus -11.6586 -45.0227 108.503
lradius 35.7772
lwrist 49.8614
lhand -6.09644 59.1378
lfingers 7.12502
lthumb -160.26 268.155
rfemur -24.725 -2.94 13.0974
rtibia 20.7464
rfoot -6.16737 -14.2986
rtoes -1.07582
lfemur -29.515 1.88575 -11.7645
ltibia 21.1804
lfoot -8.08507 -9.16723
ltoes -15.628
431
root -11.2409 18.0908 6.16576 -149.539 79.8319 -167.102
lowerback 3.4286 2.10388 -0.110677
upperback 4.09607 2.92275 4.93639
thorax 2.03654 1.46933 5.11961
lowerneck -11.9064 -2.20877 2.26919
upperneck 41.8703 0.14221 -3.13756
head 17.3402 0.812366 -1.56845
rclavicle 5.88403e-014 5.88403e-014
rhumerus -8.68514 10.8448 -100.214
rradius 32.3836
rwrist -42.908
rhand -27.112 -16.2366
rfingers 7.12502
rthumb -0.528214 -46.2157
lclavicle 5.88403e-014 5.88403e-014
lhumerus -11.6127 -45.203 108.484
lradius 35.8199
lwrist 50.0997
lhand -6.16114 59.1777
lfingers 7.12502
lthumb -160.323 268.202
rfemur -24.6473 -2.71632 12.9529
rtibia 20.7302
rfoot -6.26948 -14.6177
rtoes -0.619584
lfemur -29.5138 1.73805 -11.8009
ltibia 21.1749
lfoot -8.13946 -9.11713
ltoes -15.848
432
root -11.238 18.0903 6.16393 -150.072 79.6928 -167.656
lowerback 3.32963 2.10483 -0.140223
upperback 4.10483 2.92144 4.96681
thorax 2.09841 1.46699 5.17321
lowerneck -11.7954 -2.18184 2.28274
upperneck 41.7027 0.188262 -3.19897
head 17.2169 0.820899 -1.58734
rclavicle 2.3059e-014 -3.02153e-014
rhumerus -8.65291 10.9177 -100.192
rradius 32.3442
rwrist -42.933
rhand -27.1671 -16.1263
rfingers 7.12502
rthumb -0.581485 -46.1052
lclavicle 2.3059e-014 -3.02153e-014
lhumerus -11.5623 -45.5816 108.451
lradius 35.8909
lwrist 50.5551
lhand -6.33731 59.4284
lfingers 7.12502
lthumb -160.492 268.47
rfemur -24.6213 -2.67866 12.8661
rtibia 20.7614
rfoot -6.23114 -14.8251
rtoes -1.0158
lfemur -29.5434 1.64965 -11.864
ltibia 21.1371
lfoot -8.18638 -9.13881
ltoes -16.3877
433
root -11.2362 18.0886 6.16294 -150.696 79.5181 -168.287
lowerback 3.29057 2.08477 -0.172506
upperback 4.09959 2.89352 4.97936
thorax 2.11532 1.45194 5.20694
lowerneck -11.7285 -2.13569 2.33146
upperneck 41.5929 0.243376 -3.22223
head 17.1391 0.845319 -1.59495
rclavicle 2.70347e-014 -5.40694e-014
rhumerus -8.58051 10.7896 -100.235
rradius 32.1624
rwrist -42.6533
rhand -27.0697 -15.9547
rfingers 7.12502
rthumb -0.487392 -45.9339
lclavicle 2.70347e-014 -5.40694e-014
lhumerus -11.4624 -45.5894 108.432
lradius 35.8025
lwrist 50.6922
lhand -6.42071 59.5561
lfingers 7.12502
lthumb -160.572 268.606
rfemur -24.6045 -2.79882 12.8232
rtibia 20.8343
rfoot -6.23751 -14.9502
rtoes -1.49624
lfemur -29.5569 1.62785 -11.9652
ltibia 21.0574
lfoot -8.22406 -9.26158
ltoes -16.942
434
root -11.2352 18.0881 6.16249 -151.677 79.356 -169.28
lowerback 3.2877 2.08211 -0.292002
upperback 4.07241 2.8878 4.97949
thorax 2.08379 1.44631 5.27412
lowerneck -11.7054 -2.10553 2.37544
upperneck 41.5394 0.278237 -3.23164
head 17.1042 0.865314 -1.59976
rclavicle 1.74931e-014 1.43125e-014
rhumerus -8.56572 10.5054 -100.244
rradius 32.0584
rwrist -42.3743
rhand -26.9308 -15.9725
rfingers 7.12502
rthumb -0.353271 -45.9519
lclavicle 1.74931e-014 1.43125e-014
lhumerus -11.4184 -45.3312 108.52
lradius 35.6753
lwrist 50.4607
lhand -6.20944 59.4308
lfingers 7.12502
lthumb -160.369 268.46
rfemur -24.5876 -2.89404 12.6889
rtibia 20.9189
rfoot -6.52595 -15.1106
rtoes -0.463459
lfemur -29.5521 1.46128 -12.0965
ltibia 20.9694
lfoot -8.2406 -9.29491
ltoes -17.3515
435
root -11.2326 18.0883 6.16085 -152.697 79.1821 -170.296
lowerback 3.26795 2.1083 -0.313466
upperback 4.05895 2.92043 4.91789
thorax 2.07971 1.462 5.22117
lowerneck -11.6379 -2.10876 2.4868
upperneck 41.4281 0.235967 -3.2415
head 17.0206 0.862866 -1.6288
rclavicle -6.36111e-015 -6.36111e-015
rhumerus -8.56417 10.2461 -100.251
rradius 32.0796
rwrist -42.3491
rhand -26.8315 -16.1204
rfingers 7.12502
rthumb -0.257339 -46.1
lclavicle -6.36111e-015 -6.36111e-015
lhumerus -11.5054 -45.5901 108.538
lradius 35.7628
lwrist 50.5598
lhand -6.02263 59.2352
lfingers 7.12502
lthumb -160.189 268.246
rfemur -24.5451 -3.04331 12.5521
rtibia 21.0104
rfoot -6.69928 -15.194
rtoes 0.241631
lfemur -29.517 1.19469 -12.2001
ltibia 20.8959
lfoot -8.21913 -9.2709
ltoes -17.477
